<?xml version="1.0" encoding="iso-8859-1"?>
<!-- Generator: Adobe Illustrator 19.0.0, SVG Export Plug-In . SVG Version: 6.00 Build 0)  -->
<svg fill-opacity="0.2" version="1.1" id="Warstwa_1" xmlns="http://www.w3.org/2000/svg" xmlns:xlink="http://www.w3.org/1999/xlink" x="0px" y="0px"
	 viewBox="0 0 155.906 155.906" style="enable-background:new 0 0 155.906 155.906;" xml:space="preserve">
<g>
	<path style="fill-rule:evenodd;clip-rule:evenodd;fill:#FFC63E;" d="M77.953,6.891L77.953,6.891
		c40.285,0,73.246,31.743,73.246,70.541c0,38.797-32.961,70.54-73.246,70.54S4.707,116.229,4.707,77.432
		C4.707,38.634,37.668,6.891,77.953,6.891"/>
	<path style="fill:none;stroke:#FFFFFF;stroke-width:5.832;stroke-miterlimit:22.926;" d="M77.953,6.891L77.953,6.891
		c40.285,0,73.246,31.743,73.246,70.541c0,38.797-32.961,70.54-73.246,70.54S4.707,116.229,4.707,77.432
		C4.707,38.634,37.668,6.891,77.953,6.891z"/>
	<path style="fill-rule:evenodd;clip-rule:evenodd;fill:#FAA21B;" d="M4.707,42.655l48.845-0.065c3.607,0,6.562,3.194,6.562,6.453
		v65.359l-0.044,5.953H11.269c-3.455,0-6.562-2.803-6.562-5.953V49.043V42.655z"/>
	<path style="fill:none;stroke:#FFFFFF;stroke-width:2.835;stroke-miterlimit:22.926;" d="M4.707,42.655l48.845-0.065
		c3.607,0,6.562,3.194,6.562,6.453v65.359l-0.044,5.953H11.269c-3.455,0-6.562-2.803-6.562-5.953V49.043V42.655z"/>
	<path style="fill-rule:evenodd;clip-rule:evenodd;fill:#2E3192;" d="M10.791,111.686V50.999h39.307c1.086,0,1.672-0.13,3.107,0.76
		c0.89,0.544,1.325,2.239,1.325,3.281v3.107H18.831v18.73h33.461v7.149H18.831v20.511h37.024v7.149H10.791z"/>
	<path style="fill-rule:evenodd;clip-rule:evenodd;fill:#A5C3D2;" d="M75.41,6.891h47.694c4.41,0,8.756,4.063,8.756,7.648v60.057
		v7.17H75.41v-7.17v-60.6V6.891z"/>
	<path style="fill:none;stroke:#FFFFFF;stroke-width:2.835;stroke-miterlimit:22.926;" d="M75.41,6.891h47.694
		c4.41,0,8.756,4.063,8.756,7.648v60.057v7.17H75.41v-7.17v-60.6V6.891z"/>
	<path style="fill:#2E3192;" d="M89.249,67.592h15.059c2.589,0,4.405-0.099,5.461-0.295c1.829-0.324,3.376-0.873,4.616-1.647
		c1.238-0.774,2.252-1.9,3.053-3.378c0.802-1.478,1.197-3.18,1.197-5.108c0-2.266-0.577-4.223-1.745-5.897
		c-1.155-1.675-2.759-2.843-4.813-3.519c-2.041-0.675-4.996-1.013-8.838-1.013h-13.99V67.592z M89.249,39.642h13.075
		c3.546,0,6.093-0.239,7.627-0.704c2.041-0.605,3.575-1.619,4.602-3.025c1.028-1.408,1.549-3.167,1.549-5.292
		c0-2.012-0.479-3.786-1.45-5.306c-0.957-1.534-2.337-2.589-4.124-3.152c-1.787-0.563-4.855-0.845-9.19-0.845H89.249V39.642z
		 M81.227,74.685V14.226h22.687c4.616,0,8.317,0.604,11.118,1.829c2.786,1.224,4.968,3.11,6.544,5.657
		c1.591,2.534,2.379,5.194,2.379,7.98c0,2.576-0.704,5.01-2.098,7.29c-1.393,2.28-3.504,4.124-6.333,5.531
		c3.66,1.069,6.474,2.9,8.431,5.488c1.97,2.576,2.955,5.63,2.955,9.148c0,2.844-0.605,5.475-1.801,7.91
		c-1.196,2.434-2.674,4.306-4.434,5.629c-1.759,1.309-3.969,2.308-6.615,2.984c-2.659,0.676-5.91,1.013-9.766,1.013H81.227z"/>
	<path style="fill-rule:evenodd;clip-rule:evenodd;fill:#FFC63E;" d="M11.123,120.442h133.551c3.529,0,6.416,2.816,6.416,6.258
		v16.057c0,3.442-2.887,6.258-6.416,6.258H11.123c-3.529,0-6.416-2.816-6.416-6.258V126.7
		C4.707,123.258,7.594,120.442,11.123,120.442"/>
	<path style="fill:none;stroke:#FFFFFF;stroke-width:2.835;stroke-miterlimit:22.926;" d="M11.123,120.442h133.551
		c3.529,0,6.416,2.816,6.416,6.258v16.057c0,3.442-2.887,6.258-6.416,6.258H11.123c-3.529,0-6.416-2.816-6.416-6.258V126.7
		C4.707,123.258,7.594,120.442,11.123,120.442z"/>
	<polygon style="fill:#2E3192;" points="16.472,144.346 10.881,124.067 15.829,124.067 19.367,137.997 23.707,124.067 
		29.431,124.067 33.583,138.234 37.204,124.067 42.036,124.067 36.307,144.346 31.164,144.346 26.475,129.184 21.753,144.346 	"/>
	<path style="fill:#2E3192;" d="M46.947,144.346h-4.551v-14.699h4.219v2.086c0.725-0.987,1.378-1.633,1.96-1.94
		c0.581-0.306,1.24-0.457,1.976-0.457c1.041,0,2.043,0.245,3.006,0.731l-1.412,3.389c-0.769-0.424-1.484-0.637-2.142-0.637
		c-0.642,0-1.185,0.151-1.627,0.449c-0.444,0.302-0.793,0.839-1.047,1.623c-0.255,0.784-0.382,2.427-0.382,4.924V144.346z"/>
	<path style="fill:#2E3192;" d="M57.482,137.025c0,1.459,0.403,2.577,1.212,3.351c0.813,0.779,1.811,1.166,3,1.166
		c1.185,0,2.181-0.387,2.983-1.166c0.804-0.774,1.208-1.902,1.208-3.379c0-1.441-0.404-2.55-1.208-3.324
		c-0.802-0.778-1.798-1.166-2.983-1.166c-1.189,0-2.187,0.388-3,1.166C57.885,134.447,57.482,135.566,57.482,137.025
		 M52.798,136.817c0-1.293,0.371-2.544,1.118-3.752c0.748-1.214,1.805-2.134,3.172-2.771c1.368-0.638,2.89-0.958,4.578-0.958
		c2.608,0,4.739,0.721,6.405,2.166c1.666,1.449,2.497,3.271,2.497,5.48c0,2.229-0.841,4.074-2.519,5.537
		c-1.682,1.464-3.797,2.195-6.35,2.195c-1.577,0-3.083-0.307-4.516-0.916c-1.429-0.608-2.519-1.501-3.267-2.681
		C53.169,139.942,52.798,138.507,52.798,136.817"/>
	<path style="fill:#2E3192;" d="M88.832,134.008l-4.484,0.679c-0.15-0.76-0.493-1.33-1.03-1.718
		c-0.537-0.382-1.229-0.575-2.082-0.575c-1.134,0-2.042,0.335-2.717,1.005c-0.676,0.67-1.014,1.79-1.014,3.36
		c0,1.748,0.344,2.979,1.03,3.702c0.687,0.721,1.606,1.081,2.757,1.081c0.864,0,1.572-0.213,2.12-0.633
		c0.554-0.421,0.941-1.142,1.169-2.171l4.483,0.651c-0.465,1.756-1.356,3.083-2.673,3.979c-1.318,0.897-3.084,1.346-5.304,1.346
		c-2.513,0-4.523-0.68-6.018-2.035c-1.499-1.359-2.247-3.238-2.247-5.641c0-2.43,0.753-4.319,2.253-5.674
		c1.501-1.355,3.532-2.029,6.095-2.029c2.093,0,3.76,0.386,4.999,1.156C87.403,131.261,88.29,132.431,88.832,134.008"/>
	<rect x="93.952" y="124.067" style="fill:#2E3192;" width="4.55" height="20.279"/>
	<path style="fill:#2E3192;" d="M113.344,137.323c-0.581,0.165-1.505,0.363-2.773,0.594c-1.263,0.232-2.093,0.458-2.48,0.676
		c-0.592,0.363-0.891,0.815-0.891,1.368c0,0.548,0.237,1.015,0.714,1.411c0.476,0.397,1.079,0.595,1.815,0.595
		c0.819,0,1.606-0.231,2.353-0.689c0.548-0.354,0.914-0.779,1.086-1.289c0.116-0.33,0.176-0.962,0.176-1.893V137.323z
		 M107.233,134.178l-4.119-0.622c0.465-1.436,1.267-2.498,2.402-3.187c1.135-0.69,2.823-1.033,5.06-1.033
		c2.032,0,3.549,0.202,4.546,0.613c0.99,0.411,1.694,0.93,2.097,1.562c0.405,0.633,0.609,1.79,0.609,3.479l-0.066,4.532
		c0,1.288,0.072,2.242,0.216,2.855c0.144,0.614,0.415,1.27,0.813,1.969h-4.516c-0.117-0.255-0.266-0.632-0.438-1.133
		c-0.072-0.231-0.127-0.382-0.16-0.453c-0.776,0.651-1.606,1.137-2.492,1.463s-1.827,0.491-2.828,0.491
		c-1.767,0-3.162-0.411-4.18-1.232c-1.019-0.817-1.528-1.855-1.528-3.11c0-0.827,0.232-1.568,0.697-2.219
		c0.466-0.646,1.113-1.147,1.955-1.492c0.835-0.345,2.043-0.646,3.619-0.906c2.126-0.34,3.605-0.661,4.424-0.954v-0.391
		c0-0.755-0.216-1.294-0.647-1.619c-0.438-0.321-1.257-0.482-2.459-0.482c-0.813,0-1.444,0.137-1.899,0.415
		C107.88,132.998,107.515,133.485,107.233,134.178"/>
	<polygon style="fill:#2E3192;" points="124.843,144.346 119.396,129.647 123.824,129.647 127.052,139.282 130.025,129.647 
		134.42,129.647 137.282,139.282 140.576,129.647 145.071,129.647 139.535,144.346 135.162,144.346 132.2,134.891 129.278,144.346 	
		"/>
	<polygon style="fill-rule:evenodd;clip-rule:evenodd;fill:#A7A9AC;" points="75.41,81.766 131.99,81.766 99.159,120.356 
		75.41,120.356 75.41,113.69 75.41,88.432 	"/>
	<polygon style="fill:none;stroke:#FFFFFF;stroke-width:2.835;stroke-miterlimit:22.926;" points="75.41,81.766 131.99,81.766 
		99.159,120.356 75.41,120.356 75.41,113.69 75.41,88.432 	"/>
	<rect x="63.474" y="51.49" style="fill:#2E3192;" width="7.431" height="60.459"/>
	<path style="fill-rule:evenodd;clip-rule:evenodd;fill:#47A5AE;" d="M131.841,81.77l-32.664,38.594h45.884
		c1.84,0,3.498-1.573,4.566-2.913c1.022-1.276,1.544-3.062,1.544-4.7V81.77H131.841z"/>
	<path style="fill:none;stroke:#FFFFFF;stroke-width:2.835;stroke-miterlimit:22.926;" d="M131.841,81.77l-32.664,38.594h45.884
		c1.84,0,3.498-1.573,4.566-2.913c1.022-1.276,1.544-3.062,1.544-4.7V81.77H131.841z"/>
	<path style="fill-rule:evenodd;clip-rule:evenodd;fill:#00A651;" d="M4.769,42.572l39.586,0.064L23.825,6.894H10.522
		c-1.561,0-3.037,1.396-3.978,2.642c-1.048,1.353-1.796,3.157-1.796,4.854L4.769,42.572z"/>
	<path style="fill:none;stroke:#FFFFFF;stroke-width:2.835;stroke-miterlimit:22.926;" d="M4.769,42.572l39.586,0.064L23.825,6.894
		H10.522c-1.561,0-3.037,1.396-3.978,2.642c-1.048,1.353-1.796,3.157-1.796,4.854L4.769,42.572z"/>
	<rect x="137.77" y="30.292" style="fill-rule:evenodd;clip-rule:evenodd;fill:#2E3192;" width="7.475" height="44.304"/>
	<polygon style="fill-rule:evenodd;clip-rule:evenodd;fill:#ED1C24;" points="137.77,14.539 141.333,14.56 145.245,14.539 
		145.245,18.124 145.245,23.578 137.77,23.578 	"/>
	
		<line style="fill:none;stroke:#000000;stroke-width:0.36;stroke-miterlimit:22.926;" x1="60.07" y1="131.285" x2="60.07" y2="132.502"/>
	<polygon style="fill-rule:evenodd;clip-rule:evenodd;fill:#2E3192;" points="101.18,125.918 90.968,135.13 90.968,138.303 
		100.985,129.546 	"/>
</g>
</svg>
